<svg xmlns="http://www.w3.org/2000/svg" xmlns:xlink="http://www.w3.org/1999/xlink" fill="none"
    version="1.1" width="157" height="40" viewBox="0 0 157 40">
    <path class="a01"
        d="M86.63427134399414,27.84L90.95847134399415,38.4076C91.35257134399414,39.3706,92.29147134399415,40,93.33397134399414,40C94.75107134399414,40,95.89987134399414,38.8538,95.89987134399414,37.44C95.89987134399414,37.1082,95.83527134399415,36.7796,95.70957134399414,36.4724L90.79417134399414,24.4601C90.76037134399414,24.3603,90.72057134399414,24.2633,90.67527134399414,24.1695L81.43687134399414,1.59239C81.04277134399413,0.629383,80.10387134399414,0,79.06127134399414,0L77.93867134399414,0C76.89247134399415,0,75.95097134399414,0.633777,75.55937134399414,1.60173L61.44760734399414,36.4803L61.44701434399414,36.4817C61.32380364399414,36.7863,61.26047134399414,37.1116,61.26047134399414,37.44C61.26047134399414,38.8538,62.40926134399414,40,63.82635134399414,40C64.87260134399413,40,65.81406134399414,39.3662,66.20569134399415,38.3983L66.20629134399414,38.3968L70.47754134399415,27.84L86.63427134399414,27.84ZM84.53917134399414,22.72L78.51027134399413,7.98639L72.54907134399414,22.72L84.53917134399414,22.72Z"
        fill-rule="evenodd" fill-opacity="1" />
    <path class="a02"
        d="M123.37755004882813,38.2110997138977L123.37825004882812,38.212699713897706C123.82265004882812,39.2938997138977,124.87785004882812,39.99999971389771,126.04905004882812,39.99999971389771C127.64325004882812,39.99999971389771,128.93565004882814,38.71059971389771,128.93565004882814,37.119999713897705C128.93565004882814,36.745199713897705,128.86235004882812,36.3739997138977,128.71975004882813,36.027299713897705L128.7191500488281,36.025599713897705L124.56115004882813,25.909799713897705C124.52685004882812,25.811399713897703,124.48735004882812,25.715499713897707,124.44305004882813,25.622299713897704L116.61905004882813,6.587259713897705C116.17465004882813,5.506090713897705,115.11945004882813,4.799999713897705,113.94825004882813,4.799999713897705L112.99645004882812,4.799999713897705C111.82115004882813,4.799999713897705,110.76305004882812,5.511041713897705,110.32145004882813,6.597789713897705L98.35659704882812,36.037799713897705C98.21688194882813,36.38159971389771,98.14505004882812,36.7489997138977,98.14505004882812,37.119999713897705C98.14505004882812,38.71059971389771,99.43743004882812,39.99999971389771,101.03167004882812,39.99999971389771C102.20706004882813,39.99999971389771,103.26507004882812,39.2889997138977,103.70674004882812,38.202199713897706L107.14732004882812,29.736499713897704L119.89425004882813,29.736499713897704L123.37755004882813,38.2110997138977ZM117.52675004882812,23.976499713897706L113.48475004882812,14.142889713897706L109.48825004882812,23.976499713897706L117.52675004882812,23.976499713897706Z"
        fill-rule="evenodd" fill-opacity="1" />
    <path class="a03"
        d="M53.74104155883789,38.04179992370605L53.74124155883789,38.04329992370606C53.88414155883789,39.161799923706056,54.83814155883789,39.999999923706056,55.96834155883789,39.999999923706056C57.20834155883789,39.999999923706056,58.213441558837886,38.99709992370605,58.213441558837886,37.759999923706054C58.213441558837886,37.66529992370606,58.207441558837886,37.57069992370606,58.19544155883789,37.47669992370605L58.19524155883789,37.47519992370606L54.433741558837895,8.036729923706055C54.29084155883789,6.918186923706054,53.33684155883789,6.079999923706055,52.20664155883789,6.079999923706055L51.25494155883789,6.079999923706055C50.46054155883789,6.079999923706055,49.72534155883789,6.498827923706054,49.32154155883789,7.181369923706055L31.90476855883789,36.62029992370606L31.904137558837892,36.62139992370605C31.70007755883789,36.96629992370605,31.59244155883789,37.35949992370605,31.59244155883789,37.759999923706054C31.59244155883789,38.99709992370605,32.59763155883789,39.999999923706056,33.83759155883789,39.999999923706056C34.63198155883789,39.999999923706056,35.36724155883789,39.58119992370605,35.771041558837894,38.89859992370606L35.77167155883789,38.89759992370605L41.17766155883789,29.759999923706054L52.68284155883789,29.759999923706054L53.74104155883789,38.04179992370605ZM52.11044155883789,25.279999923706054L50.63934155883789,13.767199923706055L43.82814155883789,25.279999923706054L52.11044155883789,25.279999923706054Z"
        fill-rule="evenodd" fill-opacity="1" />
    <path class="a04"
        d="M150.82337126464844,38.00990011444092L150.82377126464843,38.01080011444092C151.31667126464845,39.21390011444092,152.48997126464843,40.00000011444092,153.79267126464845,40.00000011444092C155.56407126464845,40.00000011444092,156.99997126464842,38.56730011444092,156.99997126464842,36.80000011444092C156.99997126464842,36.38480011444092,156.91897126464843,35.97360011444091,156.76157126464844,35.589200114440914L156.76117126464845,35.58830011444092L153.57397126464843,27.809000114440916C153.54047126464843,27.714600114440916,153.50257126464845,27.62220011444092,153.46057126464842,27.53210011444092L147.45327126464844,12.869220114440918C146.96037126464844,11.666133114440917,145.78707126464843,10.880000114440918,144.48437126464844,10.880000114440918L143.75227126464844,10.880000114440918C142.44497126464844,10.880000114440918,141.26844126464843,11.671627114440918,140.77857126464843,12.880910114440919L131.57536226464845,35.59970011444092L131.57486126464843,35.60090011444092C131.42051306464845,35.98190011444092,131.34117126464844,36.38900011444092,131.34117126464844,36.80000011444092C131.34117126464844,38.56730011444092,132.77715126464844,40.00000011444092,134.54852126464843,40.00000011444092C135.85584126464843,40.00000011444092,137.03232126464843,39.20840011444092,137.52219126464843,37.99910011444092L137.52269126464844,37.99790011444092L139.92027126464845,32.07930011444092L148.39367126464845,32.07930011444092L150.82337126464844,38.00990011444092ZM145.77157126464843,25.67930011444092L144.13297126464843,21.679800114440916L142.51287126464842,25.67930011444092L145.77157126464843,25.67930011444092Z"
        fill-rule="evenodd" fill-opacity="1" />
    <path class="a05"
        d="M26.7952,36.159999465942384L28.0643,36.159999465942384C29.1271,36.159999465942384,29.9887,37.01959946594238,29.9887,38.07999946594238C29.9887,39.14039946594238,29.1271,39.99999946594238,28.0643,39.99999946594238L21.9703,39.99999946594238C20.9075,39.99999946594238,20.0459,39.14039946594238,20.0459,38.07999946594238C20.0459,37.01959946594238,20.9075,36.159999465942384,21.9703,36.159999465942384L22.6425,36.159999465942384L20.578,31.075199465942383L8.89434,31.075199465942383L6.85298,36.159999465942384L8.01839,36.159999465942384C9.08121,36.159999465942384,9.9428,37.01959946594238,9.9428,38.07999946594238C9.9428,39.14039946594238,9.08121,39.99999946594238,8.01839,39.99999946594238L1.92441,39.99999946594238C0.861589,39.99999946594238,0,39.14039946594238,0,38.07999946594238C0,37.01959946594238,0.861589,36.159999465942384,1.92441,36.159999465942384L2.70689,36.159999465942384L12.5002,11.766089465942382C12.7926,11.037591465942382,13.5,10.559999465942383,14.2866,10.559999465942383L15.1041,10.559999465942383C15.888,10.559999465942383,16.5935,11.034305465942383,16.8878,11.759119465942383L23.6146,28.326699465942383C23.6486,28.39739946594238,23.6783,28.470399465942382,23.7035,28.54549946594238L26.7952,36.159999465942384ZM19.0188,27.235199465942383L14.7031,16.606159465942383L10.436,27.235199465942383L19.0188,27.235199465942383Z"
        fill-rule="evenodd" fill-opacity="1" />
</svg>